HIERARCHY
ROOT ROOT
{
	OFFSET 0.000000 56.020000 -5.659234
	CHANNELS 6 Xposition Yposition Zposition Xrotation Yrotation Zrotation 
	JOINT C_spine0001_bind_JNT
	{
		OFFSET 0.000000 1.618999 0.000000
		CHANNELS 3 Xrotation Yrotation Zrotation
		JOINT C_spine0002_bind_JNT
		{
			OFFSET 0.000000 4.942001 0.000001
			CHANNELS 3 Xrotation Yrotation Zrotation
			JOINT C_spine0003_bind_JNT
			{
				OFFSET 0.000000 4.942001 -0.000000
				CHANNELS 3 Xrotation Yrotation Zrotation
				JOINT C_neck0001_bind_JNT
				{
					OFFSET 0.000000 17.026009 -0.000000
					CHANNELS 3 Xrotation Yrotation Zrotation
					JOINT C_neck0002_bind_JNT
					{
						OFFSET 0.000000 3.249985 0.000000
						CHANNELS 3 Xrotation Yrotation Zrotation
						JOINT C_head_bind_JNT
						{
							OFFSET 0.000000 5.278008 0.000000
							CHANNELS 3 Xrotation Yrotation Zrotation
							End Site
							{
								OFFSET 0.000000 0.000000 0.000000
							}
						}
					}
				}
				JOINT L_clavicle_bind_JNT
				{
					OFFSET 4.590000 12.067001 0.834000
					CHANNELS 3 Xrotation Yrotation Zrotation
					JOINT L_armUpper0001_bind_JNT
					{
						OFFSET 7.812635 0.512001 -3.452945
						CHANNELS 3 Xrotation Yrotation Zrotation
						JOINT L_armLower0001_bind_JNT
						{
							OFFSET 15.265892 -6.552116 -0.058157
							CHANNELS 3 Xrotation Yrotation Zrotation
							JOINT L_hand0001_bind_JNT
							{
								OFFSET 14.747667 -6.369995 5.049225
								CHANNELS 3 Xrotation Yrotation Zrotation
								End Site
								{
									OFFSET 0.000000 0.000000 0.000000
								}
							}
						}
					}
				}
				JOINT R_clavicle_bind_JNT
				{
					OFFSET -4.590000 12.067001 0.834000
					CHANNELS 3 Xrotation Yrotation Zrotation
					JOINT R_armUpper0001_bind_JNT
					{
						OFFSET -7.812635 0.512001 -3.452945
						CHANNELS 3 Xrotation Yrotation Zrotation
						JOINT R_armLower0001_bind_JNT
						{
							OFFSET -15.265890 -6.552124 -0.058160
							CHANNELS 3 Xrotation Yrotation Zrotation
							JOINT R_hand0001_bind_JNT
							{
								OFFSET -14.746784 -6.369629 5.048937
								CHANNELS 3 Xrotation Yrotation Zrotation
								End Site
								{
									OFFSET 0.000000 0.000000 0.000000
								}
							}
						}
					}
				}
			}
		}
	}
	JOINT C_pelvis0001_bind_JNT
	{
		OFFSET -0.000000 0.000000 0.000000
		CHANNELS 3 Xrotation Yrotation Zrotation
		JOINT L_legUpper0001_bind_JNT
		{
			OFFSET 6.599999 -6.027000 0.539000
			CHANNELS 3 Xrotation Yrotation Zrotation
			JOINT L_legLower0001_bind_JNT
			{
				OFFSET -0.140713 -19.187443 0.040261
				CHANNELS 3 Xrotation Yrotation Zrotation
				JOINT L_foot0001_bind_JNT
				{
					OFFSET -0.132215 -18.028637 -1.138370
					CHANNELS 3 Xrotation Yrotation Zrotation
					JOINT L_foot0002_bind_JNT
					{
						OFFSET 0.007014 -4.693133 9.886524
						CHANNELS 3 Xrotation Yrotation Zrotation
						End Site
						{
							OFFSET 0.000000 0.000000 0.000000
						}
					}
				}
			}
		}
		JOINT R_legUpper0001_bind_JNT
		{
			OFFSET -6.599999 -6.027000 0.539000
			CHANNELS 3 Xrotation Yrotation Zrotation
			JOINT R_legLower0001_bind_JNT
			{
				OFFSET 0.140710 -19.187164 0.040550
				CHANNELS 3 Xrotation Yrotation Zrotation
				JOINT R_foot0001_bind_JNT
				{
					OFFSET 0.132215 -18.028633 -1.138362
					CHANNELS 3 Xrotation Yrotation Zrotation
					JOINT R_foot0002_bind_JNT
					{
						OFFSET -0.007014 -4.693128 9.886505
						CHANNELS 3 Xrotation Yrotation Zrotation
						End Site
						{
							OFFSET 0.000000 0.000000 0.000000
						}
					}
				}
			}
		}
	}
}
MOTION
Frames: 6
Frame Time: 0.033333
0.000000 47.862511 0.000000 0.017902 -1.114259 -0.014431 3.650172 0.412637 3.442836 -1.727605 0.950435 0.785169 7.140114 1.392058 2.668983 16.565138 -2.918530 0.603512 0.328857 -1.202052 -0.494213 -5.433220 -5.012209 0.284726 18.366507 0.830866 16.181326 -22.570850 -7.466779 -77.794167 19.812069 2.238800 1.798622 0.057510 -10.167794 -21.519108 15.927188 -4.140393 -17.043613 -39.491318 17.982660 76.145645 25.455713 14.371391 4.296462 9.732029 9.346863 28.994196 2.249275 -2.088566 -0.003062 -22.019295 16.072445 16.747314 7.543115 5.947838 -4.884872 1.184600 9.278153 -5.059635 -3.089734 -0.480093 -0.123157 4.189685 -15.833116 4.905016 9.630756 -7.201825 2.928940 -13.391532 -13.726657 -3.435953 -4.005638 -1.273031 -0.501329 
0.074457 47.923492 0.316054 0.016473 -3.115844 -0.018186 4.135548 4.215681 2.310977 -2.105603 1.211166 1.081904 6.762152 0.907465 2.906728 17.285767 -3.084917 0.448238 0.081105 -0.425660 0.021455 -5.826283 -5.381156 0.033692 19.358150 -0.167830 16.613783 -21.478985 -5.813867 -77.684914 19.064510 2.533357 1.408829 1.072464 -11.560153 -22.874395 16.163902 -3.858905 -15.701431 -39.141293 18.605385 74.423119 23.752293 16.201622 5.223470 11.137721 8.112470 27.985512 3.156145 0.893798 -0.362532 -24.055096 17.434935 17.329525 8.801300 5.665782 -4.994480 -0.756221 7.997833 -5.393882 -2.521161 -0.076173 -0.211142 3.853631 -16.334629 4.603067 7.819158 -6.018947 2.290980 -11.519776 -14.936219 -3.369474 -4.268531 -0.859306 -0.439213 
0.092048 47.940075 0.800076 0.017836 -2.385210 -0.027497 4.172354 4.059550 1.933583 -2.201191 1.364758 1.186874 6.743577 1.147787 2.883493 17.202023 -3.268450 0.491952 0.241107 -0.156174 0.061014 -5.579722 -5.725406 0.194906 19.670343 -0.634141 16.063564 -20.958918 -5.233797 -77.222542 18.966713 3.120975 1.113067 1.389794 -11.593139 -22.621368 16.146591 -3.725505 -15.237982 -39.826683 19.134598 74.528740 24.047642 16.490173 5.930740 11.309566 9.118587 27.967752 3.252905 0.550738 -0.630781 -25.872749 18.349470 18.362095 8.147462 6.227859 -4.836177 0.456649 8.479493 -4.477661 -1.738544 0.757744 -0.317484 4.722482 -16.135702 5.032480 7.473784 -6.738063 2.760891 -11.659385 -15.287023 -3.462690 -4.693678 -0.950462 -0.234965 
0.385361 47.865242 1.240851 0.017131 -1.870259 -0.037882 4.251317 4.328371 1.690768 -2.280829 1.439274 1.099547 6.458740 1.101692 2.755381 17.440918 -3.259327 0.691191 0.189815 -0.126982 0.044444 -5.149666 -5.786607 0.422466 19.781841 -0.545532 15.976213 -19.981647 -4.402034 -77.254097 19.333427 4.089064 1.099658 1.507225 -11.720812 -22.683525 15.934887 -3.588869 -14.820302 -40.149899 19.689573 74.516769 23.911564 17.382650 6.217939 11.128545 9.290153 27.969416 3.186066 0.556655 -0.529063 -26.250294 18.503445 18.519686 8.621833 6.342407 -4.707170 0.853386 8.617042 -4.575432 -1.253216 0.747699 -0.508692 5.126069 -15.902533 4.608679 7.718832 -6.609249 2.589429 -11.897173 -15.430170 -2.982577 -4.680303 -1.038250 -0.145660 
0.725405 47.856342 1.585311 0.020869 -1.222921 -0.032512 4.220757 4.409938 1.438341 -2.275249 1.548403 1.144812 6.434784 1.161004 2.703322 17.470551 -3.293328 0.818908 0.175354 -0.295318 0.131562 -5.117913 -5.846192 0.453153 19.672071 -0.750680 15.658821 -19.057268 -4.061353 -76.851593 19.414246 5.177846 1.222286 1.304964 -11.912962 -22.948677 15.691538 -3.485571 -14.802915 -40.274670 19.825319 74.374199 24.101889 18.383425 6.833539 11.125278 9.666010 27.964214 3.419179 0.547638 -0.523567 -26.500511 18.319149 18.503040 8.615229 6.309040 -4.498188 1.687923 8.488325 -4.568059 -0.812735 0.735785 -0.616144 5.115505 -16.364357 4.127321 7.757613 -6.519130 2.571449 -11.895197 -15.500453 -2.510503 -4.706564 -1.097667 0.053910 
1.161488 47.780998 2.047098 0.021158 -0.711925 -0.040313 4.156025 4.557457 1.204139 -2.205436 1.772901 1.005348 6.239825 1.186858 2.694754 17.482416 -3.567235 0.843122 0.263637 -0.248245 0.009085 -5.066445 -6.175866 0.516440 19.932497 -1.209178 15.577938 -18.609619 -3.287267 -76.867836 19.135157 6.245605 1.108770 1.486945 -12.267033 -22.725346 15.680483 -3.497270 -14.612616 -40.346256 20.254200 74.452522 23.800188 19.916727 6.825770 11.089628 9.401556 28.371740 3.469023 0.403514 -0.819091 -26.415022 18.017221 18.551565 8.304914 5.606109 -4.263560 2.534165 8.407133 -4.985773 -0.412337 0.786850 -0.660171 5.755863 -16.324076 4.058382 7.640734 -6.258549 2.257201 -12.136651 -15.688305 -1.895304 -4.728036 -0.931870 0.218322 
